<svg xmlns="http://www.w3.org/2000/svg" width="33" height="37" viewBox="0 0 33 37">
    <g fill="none" fill-rule="evenodd">
        <path fill="#EFEFEF" d="M27.337 30.28a23.02 23.02 0 0 1-10.014 5.738c-4.068 1.18-8.912 1.61-11.796-.518-2.884-2.13-3.82-6.813-4.284-11.015-.465-4.202-.382-7.936 1.324-10.509C4.273 11.404 7.66 9.98 11.142 7.62 14.624 5.26 18.31 2 21.906 2c3.597 0 7.137 3.234 9.104 6.943a17.652 17.652 0 0 1 1.63 11.69 18.993 18.993 0 0 1-5.303 9.647z"/>
        <path fill="#CCC" d="M.161 32a.178.178 0 0 1-.122-.049A.177.177 0 0 1 0 31.83L2.475 9.14A.17.17 0 0 1 2.635 9H6.39c.088 0 .16.068.16.153v2.213c0 .297.254.538.566.538.312 0 .566-.24.566-.538V9.153c0-.085.072-.153.16-.153h9.038c.089 0 .16.068.16.153v2.213c0 .297.254.538.566.538.313 0 .566-.24.566-.538V9.153c0-.085.072-.153.16-.153h3.755c.084 0 .154.061.16.14L23 16.478a.154.154 0 0 1-.038.116.178.178 0 0 1-.122.05h-8.64l-1.71 15.222a.158.158 0 0 1-.16.135H.161z"/>
        <path fill="#4D4D4D" fill-rule="nonzero" d="M21.94 8.315l.742 7.555h-8.659l-1.705 15.815h-12L2.76 8.315h3.702v2.279c0 .393.32.711.716.711a.714.714 0 0 0 .716-.711v-2.28h8.913v2.28c0 .393.32.711.716.711a.714.714 0 0 0 .716-.711v-2.28h3.702zm0-.315h-3.702a.316.316 0 0 0-.317.315v2.279c0 .22-.18.4-.402.4a.401.401 0 0 1-.403-.4v-2.28A.316.316 0 0 0 16.8 8H7.893a.316.316 0 0 0-.317.315v2.279c0 .219-.178.397-.399.397-.22 0-.4-.178-.4-.397v-2.28A.316.316 0 0 0 6.462 8H2.759a.31.31 0 0 0-.31.283L.001 31.653a.301.301 0 0 0 .082.24.305.305 0 0 0 .235.107h11.999c.163 0 .3-.122.317-.283l1.673-15.526h8.374a.324.324 0 0 0 .234-.1.326.326 0 0 0 .083-.246l-.742-7.555a.322.322 0 0 0-.317-.284V8z"/>
        <path fill="#FFF" d="M12.154 32a.153.153 0 0 1-.117-.052.149.149 0 0 1-.035-.123l1.696-15.688a.158.158 0 0 1 .158-.137h13.29a.17.17 0 0 1 .158.137L29 31.825c0 .046-.015.09-.044.125a.146.146 0 0 1-.114.05H12.154z"/>
        <path fill="#4D4D4D" fill-rule="nonzero" d="M27.03 16.326l1.663 16.348H12.307l1.669-16.348H27.03zM27.007 16h-13.03a.316.316 0 0 0-.31.293l-1.663 16.349c-.012.09.015.18.074.247.058.07.142.11.23.111h16.386a.304.304 0 0 0 .23-.11.316.316 0 0 0 .074-.248l-1.662-16.349A.31.31 0 0 0 27.03 16h-.025z"/>
        <path fill="#F44C81" d="M17.276 11a.743.743 0 0 1-.517-.206.671.671 0 0 1-.207-.495V5.712c0-2.39-2.038-4.329-4.552-4.329s-4.552 1.938-4.552 4.33v4.586c0 .38-.324.689-.724.689-.4 0-.724-.309-.724-.689V5.712C6.004 2.56 8.69.003 12.006 0 15.32.007 18 2.562 18 5.712V10.3a.671.671 0 0 1-.208.495.743.743 0 0 1-.516.206z"/>
        <path fill="#4D4D4D" fill-rule="nonzero" d="M12.013.3c3.13.019 5.663 2.42 5.684 5.389v4.49a.546.546 0 0 1-.553.471.546.546 0 0 1-.552-.47V5.713c0-2.411-2.062-4.366-4.605-4.366-2.542 0-4.604 1.955-4.604 4.366v4.467a.536.536 0 0 1-.55.52.536.536 0 0 1-.549-.52V5.713c0-2.977 2.545-5.39 5.684-5.39L12.013.3zm-.045-.276C8.674.057 6.018 2.589 6 5.713v4.467c0 .453.387.82.865.82s.866-.367.866-.82V5.713c0-2.246 1.92-4.066 4.288-4.066 2.368 0 4.288 1.82 4.288 4.066v4.467c.096.369.446.628.847.628.4 0 .75-.26.846-.628V5.713C18 2.572 15.325.02 12.013 0l-.045.024z"/>
        <path fill="#F79" d="M20 26c-2.21 0-4-1.795-4-4.01v-3.241a.748.748 0 1 1 1.493 0v3.261a2.508 2.508 0 0 0 1.21 2.278 2.495 2.495 0 0 0 2.574 0 2.508 2.508 0 0 0 1.21-2.278V18.75A.754.754 0 0 1 23.24 18c.2-.003.393.077.533.22a.723.723 0 0 1 .227.529v3.261A4.005 4.005 0 0 1 20 26z"/>
        <path fill="#4D4D4D" fill-rule="nonzero" d="M23.13 18.32c.145 0 .285.058.39.16a.58.58 0 0 1 .166.395v3.116a3.675 3.675 0 0 1-3.68 3.67 3.675 3.675 0 0 1-3.68-3.67v-3.097a.556.556 0 0 1 1.114 0v3.116A2.557 2.557 0 0 0 20 24.564a2.557 2.557 0 0 0 2.56-2.554v-3.116a.563.563 0 0 1 .563-.555l.006-.02zm-.007-.3a.884.884 0 0 0-.89.874v3.116a2.237 2.237 0 0 1-2.24 2.234c-1.237 0-2.24-1-2.24-2.234v-3.116a.876.876 0 0 0-1.753 0v3.116c0 2.204 1.79 3.99 4 3.99 2.209 0 4-1.786 4-3.99v-3.116a.867.867 0 0 0-.263-.638.865.865 0 0 0-.64-.256l.026.02z"/>
        <path fill="#AAA" d="M2.597 9L0 32h1.396L4 9z"/>
        <path fill="#E0E0E0" d="M13.695 16L12 32h1.31L15 16z"/>
    </g>
</svg>
