<svg xmlns="http://www.w3.org/2000/svg" width="29" height="29" viewBox="0 0 29 29">
    <g fill="none" fill-rule="evenodd">
        <path fill="#EFEFEF" d="M21.371 5.034c3.056 2.37 6.751 4.805 7.49 7.972.738 3.167-1.549 7.062-4.605 9.625-3.056 2.563-6.904 3.794-11.148 4.22-4.244.425-8.925.046-10.878-2.522-1.954-2.568-1.193-7.323-.356-11.213.837-3.89 1.75-6.947 3.704-9.318C7.531 1.428 10.53-.271 13.23.036c2.7.306 5.086 2.613 8.142 4.998z"/>
        <rect width="4" height="3" x="18" y="11" fill="#CCC" rx=".5"/>
        <path fill="#4D4D4D" fill-rule="nonzero" d="M21.785 11.209v2.582h-3.57V11.21h3.57zm0-.209h-3.57a.212.212 0 0 0-.215.209v2.582c0 .115.096.209.215.209h3.57a.212.212 0 0 0 .215-.209V11.21a.212.212 0 0 0-.215-.209z"/>
        <path fill="#AAA" d="M18 11h1v3h-1z"/>
        <rect width="4" height="4" x="2" y="10" fill="#F79" rx=".5"/>
        <path fill="#4D4D4D" fill-rule="nonzero" d="M5.785 10.202v3.596h-3.57v-3.596h3.57zm0-.202h-3.57c-.118.002-.213.091-.215.202v3.596c0 .112.096.202.215.202h3.57c.119 0 .215-.09.215-.202v-3.596C6 10.09 5.904 10 5.785 10z"/>
        <path fill="#EF608F" d="M3 10h1v4H3z"/>
        <rect width="4" height="7" x="7" y="7" fill="#F44C81" rx=".5"/>
        <path fill="#4D4D4D" fill-rule="nonzero" d="M10.785 7.226v6.548h-3.57V7.226h3.57zm0-.226h-3.57A.225.225 0 0 0 7 7.226v6.548a.22.22 0 0 0 .215.226h3.57a.22.22 0 0 0 .215-.226V7.226A.225.225 0 0 0 10.785 7z"/>
        <path fill="#E0447C" d="M8 7H7v7h1V9.703z"/>
        <rect width="8" height="9" x="10" y="6" fill="#FFF" rx=".5"/>
        <path fill="#4D4D4D" fill-rule="nonzero" d="M17.772 6.233v8.534h-7.544V6.233h7.544zm0-.233h-7.544a.23.23 0 0 0-.228.233v8.534a.23.23 0 0 0 .228.233h7.544a.23.23 0 0 0 .228-.233V6.233A.23.23 0 0 0 17.772 6z"/>
        <path fill="#E0E0E0" d="M12 6h-1v9h1V7.865z"/>
        <path fill="#FFD9C7" d="M4.141 28a.116.116 0 0 1-.106-.084l-3.02-10.543A1.113 1.113 0 0 1 0 16.26v-2.147C0 13.498.493 13 1.102 13h22.796c.607.003 1.1.5 1.102 1.113v2.147c0 .58-.441 1.064-1.015 1.113l-3.02 10.543a.11.11 0 0 1-.11.084H4.14z"/>
        <path fill="#4D4D4D" fill-rule="nonzero" d="M23.794 13.244c.539.003.975.47.978 1.046v2.254c-.01.572-.444 1.031-.978 1.036l-3.012 11.165H4.218L1.206 17.58c-.535-.002-.97-.463-.978-1.036V14.29c0-.577.438-1.046.978-1.046h22.588zm0-.244H1.206C.54 13 0 13.578 0 14.29v2.254c0 .642.44 1.186 1.033 1.28l2.965 11a.227.227 0 0 0 .22.175h16.564a.23.23 0 0 0 .238-.176l2.947-10.998c.593-.097 1.03-.64 1.033-1.281V14.29c0-.712-.54-1.29-1.206-1.29z"/>
        <path fill="#F2B9A7" d="M1.663 16.193v-2.18c.002-.56.48-1.013 1.067-1.013H1.062C.475 13 0 13.453 0 14.012v2.181c.008.554.48 1 1.062 1.003L4.332 28H6L2.73 17.196c-.583-.003-1.057-.448-1.067-1.003z"/>
        <rect width="25" height="4" y="14" fill="#D89078" rx="2"/>
        <path fill="#4D4D4D" fill-rule="nonzero" d="M23.794 14.202c.539.002.975.388.978.865v1.862c-.01.473-.444.853-.978.857H1.206c-.535-.002-.97-.383-.978-.857v-1.862c0-.478.438-.865.978-.865h22.588zm0-.202H1.206C.54 14 0 14.478 0 15.067v1.862c0 .59.54 1.069 1.206 1.071h22.588c.667-.002 1.206-.48 1.206-1.07v-1.863c0-.59-.54-1.067-1.206-1.067z"/>
        <path fill="#BC6E5C" d="M1.218 17.044v-2.079C1.22 14.431 1.57 14 2 14H.778c-.43 0-.778.432-.778.965v2.079c.006.528.352.954.778.956H2c-.427-.002-.774-.427-.782-.956z"/>
        <path fill="#4D4D4D" d="M7.002 20a.248.248 0 0 0-.244.246v6.537c.016.125.12.217.242.217a.247.247 0 0 0 .242-.217v-6.537a.243.243 0 0 0-.24-.246zM17.998 20c-.133 0-.24.11-.24.246v6.537c.016.125.12.217.242.217a.247.247 0 0 0 .242-.217v-6.537a.248.248 0 0 0-.244-.246zM15 20a.247.247 0 0 0-.245.245v6.51A.247.247 0 0 0 15 27a.247.247 0 0 0 .245-.245v-6.51A.247.247 0 0 0 15 20zM10.002 20a.248.248 0 0 0-.244.246v6.537c.016.125.12.217.242.217a.247.247 0 0 0 .242-.217v-6.537a.243.243 0 0 0-.24-.246z"/>
    </g>
</svg>
