<svg xmlns="http://www.w3.org/2000/svg" width="37" height="34" viewBox="0 0 37 34">
    <g fill="none" fill-rule="evenodd">
        <path fill="#EFEFEF" d="M24.76 5.772c3.74 2.72 8.236 5.514 9.085 9.153.849 3.638-1.889 8.12-5.6 11.063-3.71 2.943-8.354 4.358-13.525 4.842-5.172.485-10.848.052-13.223-2.885s-1.455-8.4-.434-12.883c1.022-4.483 2.126-7.984 4.501-10.7 2.375-2.714 6.02-4.67 9.28-4.322 3.26.348 6.205 3.006 9.916 5.732z"/>
        <path fill="#FFF" d="M6.446 23c-.384 0-.753-.158-1.024-.438A1.51 1.51 0 0 1 5 21.506v-9.35c0-.046.019-.09.054-.12a.146.146 0 0 1 .125-.033h27.672c.082 0 .149.069.149.154v9.35c0 .812-.632 1.476-1.422 1.493H6.446z"/>
        <path fill="#4D4D4D" fill-rule="nonzero" d="M32.674 12.3v9.097c-.01.71-.582 1.28-1.284 1.28H6.527a1.292 1.292 0 0 1-1.231-1.28v-9.098h27.408-.03zm.03-.3H5.296a.298.298 0 0 0-.296.3v9.097c0 .883.707 1.6 1.58 1.603h24.863A1.595 1.595 0 0 0 33 21.397v-9.098c0-.165-.133-.299-.296-.299z"/>
        <rect width="28" height="18" x="9" y="16" fill="#FFF" rx="4.84"/>
        <path fill="#4D4D4D" fill-rule="nonzero" d="M35.42 16.286c.341 0 .668.131.908.364.241.233.376.55.376.88v14.94c0 .687-.574 1.244-1.283 1.244H10.579c-.709 0-1.283-.557-1.283-1.243V17.529c0-.686.574-1.243 1.283-1.243h24.842zm0-.286H10.58c-.872.003-1.577.686-1.58 1.53v14.94c.003.844.708 1.527 1.58 1.53h24.84c.872-.003 1.577-.686 1.58-1.53V17.53c-.003-.844-.708-1.527-1.58-1.53z"/>
        <path fill="#FFF" d="M5.15 9A.146.146 0 0 1 5 8.858V6.383c-.002-.367.15-.718.422-.978.271-.26.64-.405 1.025-.405h25.106c.8.003 1.447.621 1.447 1.383v2.475a.146.146 0 0 1-.15.142H5.15z"/>
        <path fill="#4D4D4D" fill-rule="nonzero" d="M31.42 5.266c.71.003 1.284.52 1.284 1.158v2.31H5.326v-2.31c0-.628.556-1.141 1.255-1.158h24.862-.024zM31.442 5H6.581C5.707 5.003 5 5.64 5 6.424v2.31c0 .147.133.266.296.266h27.408c.163 0 .296-.119.296-.266v-2.31c0-.785-.707-1.421-1.58-1.424h.023z"/>
        <path fill="#F44C81" d="M29.164 25c-.812 0-1.584-.31-2.12-.848-.055 0-.043-.038-.043-.092v-3.125a.147.147 0 0 1 .062-.109c.536-.525 1.3-.826 2.1-.826h.18c1.415.078 2.547 1.067 2.649 2.315.06.692-.213 1.375-.752 1.88-.537.51-1.288.8-2.076.805z"/>
        <path fill="#4D4D4D" fill-rule="nonzero" d="M29.183 20.258h.162c1.142.063 2.093.8 2.32 1.795.225.996-.331 2.002-1.357 2.453-1.025.45-2.263.232-3.018-.532v-2.959c.48-.481 1.169-.757 1.893-.757zm0-.258c-.807 0-1.574.309-2.108.845a.248.248 0 0 0-.075.17v2.964c0 .07.032.137.087.186.532.531 1.295.835 2.096.835.781-.002 1.527-.291 2.06-.799.536-.506.807-1.189.75-1.881-.105-1.246-1.227-2.233-2.63-2.315l-.18-.005z"/>
        <rect width="4" height="1" x="12" y="29" fill="#4D4D4D" rx=".5"/>
        <rect width="4" height="1" x="17" y="29" fill="#4D4D4D" rx=".5"/>
        <rect width="4" height="1" x="23" y="29" fill="#4D4D4D" rx=".5"/>
        <rect width="4" height="1" x="28" y="29" fill="#4D4D4D" rx=".5"/>
        <rect width="6" height="1" x="12" y="26" fill="#4D4D4D" rx=".5"/>
        <path fill="#E0E0E0" d="M9.439 31.788V17.212c0-.67.699-1.212 1.561-1.212H9.561c-.414 0-.811.128-1.104.355-.293.227-.457.536-.457.857v14.576C8 32.458 8.699 33 9.561 33H11c-.862 0-1.561-.543-1.561-1.212zM5.456 20.767V12H4v8.767c.012.672.694 1.218 1.544 1.233H7c-.85-.015-1.532-.56-1.544-1.233zM7 4H5.544C4.684 4.02 4 4.612 4 5.335V8h1.456V5.335C5.456 4.612 6.14 4.02 7 4z"/>
        <rect width="28" height="4" x="5" y="9" fill="#CCC" rx=".5"/>
        <path fill="#4D4D4D" fill-rule="nonzero" d="M32.674 9.266v3.468H5.296V9.266h27.408-.03zm.03-.266H5.296C5.133 9 5 9.12 5 9.266v3.468c0 .147.133.266.296.266h27.408c.163 0 .296-.12.296-.266V9.266c0-.147-.133-.266-.296-.266z"/>
        <path fill="#AAA" d="M4 9h1v4H4z"/>
        <path fill="#E0447C" d="M27.796 24.132v-3.305c.564-.457 1.339-.749 2.18-.822h-.159c-1.068-.05-2.108.26-2.817.84v3.304c.654.542 1.6.852 2.594.851.136-.005.272-.017.406-.034-.853-.07-1.64-.367-2.204-.834z"/>
        <ellipse cx="27" cy="22.5" fill="#F79" rx="3" ry="2.5"/>
        <path fill="#4D4D4D" fill-rule="nonzero" d="M27 20.278c1.089.007 2.066.56 2.475 1.4.409.84.17 1.804-.606 2.44-.777.637-1.936.821-2.939.467-1.002-.355-1.65-1.178-1.64-2.085 0-1.238 1.205-2.242 2.691-2.242l.019.02zM26.981 20c-1.654.009-2.988 1.132-2.981 2.51.007 1.379 1.352 2.493 3.006 2.49C28.661 24.997 30 23.879 30 22.5c-.003-1.38-1.345-2.497-3-2.5h-.019z"/>
        <path fill="#EF608F" d="M23.825 22.498c.005-1.265 1.37-2.326 3.175-2.47a4.97 4.97 0 0 0-.412-.028C24.606 20 23 21.118 23 22.498c0 1.38 1.606 2.498 3.588 2.498.137.005.275.005.412 0-1.819-.147-3.187-1.223-3.175-2.498z"/>
    </g>
</svg>
