<svg xmlns="http://www.w3.org/2000/svg" width="34" height="34" viewBox="0 0 34 34">
    <g fill="none" fill-rule="evenodd">
        <path fill="#EFEFEF" d="M27.354 27.477c-2.79 2.644-6.246 4.562-10.037 5.569-4.064 1.146-8.892 1.564-11.795-.498-2.903-2.062-3.845-6.62-4.29-10.7-.444-4.08-.376-7.706 1.33-10.207 1.704-2.5 5.068-3.88 8.577-6.162C14.65 3.198 18.3 0 21.904 0c3.604 0 7.135 3.133 9.112 6.76a16.695 16.695 0 0 1 1.621 11.347c-.766 3.546-2.602 6.803-5.283 9.37z"/>
        <path fill="#F79" d="M23.124 27a.126.126 0 0 1-.124-.129V13.13c0-.071.055-.129.124-.129h5.742c.933.002 1.783.558 2.188 1.433l1.698 3.608c.165.348.25.731.248 1.119v6.469c-.005.757-.595 1.368-1.322 1.371h-8.554z"/>
        <path fill="#4D4D4D" fill-rule="nonzero" d="M29.845 13.271c.862.004 1.647.554 2.03 1.421l1.656 3.747c.152.348.23.73.227 1.117v6.866c-.002.723-.525 1.307-1.169 1.307h-8.347V13.27h5.603zm0-.271h-5.603c-.134 0-.242.121-.242.271V27.73c0 .15.108.271.242.271h8.347c.775-.003 1.403-.704 1.411-1.573v-6.854a3.066 3.066 0 0 0-.256-1.242l-1.652-3.764c-.426-.954-1.296-1.555-2.247-1.55V13z"/>
        <path fill="#FFF" d="M25.75 22a.745.745 0 0 1-.527-.202.706.706 0 0 1-.223-.507v-4.582a.695.695 0 0 1 .212-.503.733.733 0 0 1 .517-.206h3.73a.654.654 0 0 1 .597.363l1.796 3.552c.097.189.147.397.148.608v.885a.6.6 0 0 1-.608.592H25.75z"/>
        <path fill="#4D4D4D" fill-rule="nonzero" d="M29.422 16.255a.486.486 0 0 1 .454.276l1.734 3.4c.079.16.122.335.126.512v.847a.427.427 0 0 1-.13.312.456.456 0 0 1-.323.127h-5.445a.566.566 0 0 1-.574-.551v-4.371a.56.56 0 0 1 .569-.552h3.59zm0-.255h-3.59a.82.82 0 0 0-.832.807v4.386a.826.826 0 0 0 .838.807h5.445c.396 0 .717-.31.717-.694v-.848a1.458 1.458 0 0 0-.153-.638l-1.734-3.401a.767.767 0 0 0-.69-.419z"/>
        <path fill="#CCC" d="M1.095 27C.49 27 0 26.603 0 26.114v-2.007c0-.06.059-.107.132-.107h23.736c.073 0 .132.048.132.107v2.786c0 .06-.059.107-.132.107H1.095z"/>
        <path fill="#4D4D4D" fill-rule="nonzero" d="M23.74 24.332v4.336H1.214c-.253.002-.497-.125-.676-.353a1.393 1.393 0 0 1-.278-.86v-3.123h23.48zm0-.332H.26c-.143 0-.26.148-.26.332v3.123C0 28.308.543 29 1.214 29H23.74c.143 0 .26-.148.26-.332v-4.336c0-.184-.117-.332-.26-.332z"/>
        <ellipse cx="28" cy="27.5" fill="#FFF" rx="4" ry="3.5"/>
        <path fill="#4D4D4D" fill-rule="nonzero" d="M28 24.25c1.515-.002 2.882.795 3.463 2.02.58 1.224.26 2.633-.81 3.57-1.072.938-2.683 1.218-4.082.71-1.4-.508-2.31-1.704-2.308-3.03 0-1.806 1.673-3.27 3.737-3.27zm0-.25c-2.21 0-4 1.567-4 3.5s1.79 3.5 4 3.5 4-1.567 4-3.5c-.016-1.927-1.797-3.486-4-3.5z"/>
        <path fill="#CCC" d="M26.997 28a1 1 0 1 1 .006-2 1 1 0 0 1-.006 2z"/>
        <path fill="#4D4D4D" fill-rule="nonzero" d="M26.997 26.157a.843.843 0 1 1 0 1.686.843.843 0 0 1 0-1.686zm0-.157a1 1 0 1 0 .006 2 1 1 0 0 0-.006-2z"/>
        <path fill="#AAA" d="M1.044 26.16V24H0v2.16a.786.786 0 0 0 .278.595c.18.158.424.246.678.245H2a1.022 1.022 0 0 1-.677-.245.786.786 0 0 1-.279-.594z"/>
        <path fill="#FFF" d="M.132 24C.059 24 0 23.946 0 23.88V7.507C0 6.677.735 6.003 1.643 6h20.714c.908.003 1.643.677 1.643 1.507V23.88c0 .066-.059.12-.132.12H.132z"/>
        <path fill="#4D4D4D" fill-rule="nonzero" d="M22.245 6.25c.825 0 1.495.646 1.495 1.44v17.06H.26V7.69c0-.794.67-1.44 1.495-1.44h20.49zm0-.25H1.755a1.79 1.79 0 0 0-1.24.495A1.66 1.66 0 0 0 0 7.691v17.058c0 .139.117.251.26.251h23.474a.266.266 0 0 0 .266-.25V7.69C24 6.758 23.214 6 22.245 6z"/>
        <path fill="#F79" d="M14.4 13.986a.687.687 0 0 1-.276-.058l-2.473-1.116a.333.333 0 0 0-.148-.034.308.308 0 0 0-.149.034l-2.478 1.13a.668.668 0 0 1-.689-.086.488.488 0 0 1-.187-.378V6.12c0-.066.062-.12.138-.12h6.724c.076 0 .138.054.138.12v7.343c0 .289-.269.523-.6.523z"/>
        <path fill="#4D4D4D" fill-rule="nonzero" d="M14.735 6.233v7.142c0 .217-.2.392-.446.392a.503.503 0 0 1-.202-.042L11.7 12.639a.441.441 0 0 0-.202-.047.448.448 0 0 0-.207.047l-2.382 1.086a.545.545 0 0 1-.207.042c-.243-.005-.436-.179-.436-.392V6.233h6.47zm0-.233h-6.47C8.12 6 8 6.104 8 6.233v7.142c0 .345.318.625.711.625a.756.756 0 0 0 .324-.07l2.388-1.086a.174.174 0 0 1 .085 0 .168.168 0 0 1 .08 0l2.388 1.086c.1.046.21.07.323.07.39-.005.701-.283.701-.625V6.233c0-.129-.119-.233-.265-.233z"/>
        <path fill="#4D4D4D" d="M7.637 18H1.363c-.2 0-.363.224-.363.5a.6.6 0 0 0 .104.356c.069.094.162.146.259.144h6.274c.2 0 .363-.224.363-.5s-.162-.5-.363-.5zM7.584 22.004H1.321c-.184.033-.321.245-.321.496s.137.463.321.496h6.263c.142.025.282-.064.358-.228a.654.654 0 0 0 0-.536c-.076-.164-.216-.253-.358-.228z"/>
        <path fill="#E0E0E0" d="M2 6h-.821C.528 6 0 6.627 0 7.401V24h.821V7.401C.821 6.627 1.35 6 2 6z"/>
        <ellipse cx="5" cy="27.5" fill="#FFF" rx="4" ry="3.5"/>
        <path fill="#4D4D4D" fill-rule="nonzero" d="M5 24.25c1.514 0 2.88.798 3.458 2.023.58 1.224.258 2.633-.813 3.57-1.072.936-2.683 1.215-4.081.706-1.399-.508-2.31-1.704-2.307-3.029 0-.868.395-1.7 1.097-2.314.702-.613 1.654-.957 2.646-.956zM5 24c-2.21 0-4 1.567-4 3.5S2.79 31 5 31s4-1.567 4-3.5c-.016-1.927-1.797-3.486-4-3.5z"/>
        <path fill="#CCC" d="M5 28a1 1 0 1 1 0-2 1 1 0 0 1 0 2z"/>
        <path fill="#4D4D4D" fill-rule="nonzero" d="M5 26.157a.843.843 0 1 1-.006 1.686A.843.843 0 0 1 5 26.157zM5 26a1 1 0 1 0 0 2 1 1 0 0 0 0-2z"/>
        <path fill="#EF608F" d="M8.966 13.636V7H8v6.636a.362.362 0 0 0 .197.31c.12.066.27.072.397.015l.406-.19a.293.293 0 0 1-.034-.135z"/>
        <path fill="#E0E0E0" d="M26.294 21.397v-4.794c0-.333.313-.603.7-.603h-1.295c-.386 0-.699.27-.699.603v4.794c.004.334.318.603.706.603H27c-.387 0-.702-.269-.706-.603z"/>
    </g>
</svg>
