<svg xmlns="http://www.w3.org/2000/svg" width="26" height="25" viewBox="0 0 26 25">
    <g fill="none" fill-rule="evenodd">
        <path fill="#EFEFEF" d="M25.8 12.96c.813 2.083-.963 5.087-3.281 7.407-2.319 2.32-5.198 3.97-8.043 4.417-2.845.448-5.664-.284-8.461-1.494C3.217 22.08.423 20.488.047 18.155c-.376-2.333 1.583-5.364 3.204-8.179 1.621-2.815 2.892-5.35 5.027-7.072C10.412 1.182 13.41.32 15.216 1.38c1.806 1.059 2.379 4.14 4.372 6.246 1.994 2.105 5.399 3.267 6.212 5.333z"/>
        <path fill="#FFD9C7" d="M5.208 22.917A1.213 1.213 0 0 1 4 21.7V8.935a1.212 1.212 0 0 1 .456-.953l5.756-4.613a2.064 2.064 0 0 1 2.58 0l.258.208a.109.109 0 0 1 .039.095c-.001.035-.021.067-.052.083a7.957 7.957 0 0 0-1.238.866c-.078.065-.15.134-.22.203a.099.099 0 0 1-.077.035 1.205 1.205 0 0 0-1.128 1.206c0 .64.495 1.168 1.128 1.207.156 0 .31-.03.456-.087.281-.117.509-.337.636-.615a1.204 1.204 0 0 0-.267-1.369.113.113 0 0 1-.034-.082.122.122 0 0 1 .039-.078c.417-.33.863-.62 1.333-.866h.051c.026 0 .05.01.069.026l4.76 3.781c.287.232.455.582.455.953v12.782c-.01.665-.548 1.2-1.208 1.2H5.208z"/>
        <path fill="#4D4D4D" fill-rule="nonzero" d="M11.498 3.135c.438 0 .862.152 1.204.428l.254.206c-.437.245-.85.531-1.234.856-.08.068-.152.137-.224.21-.71 0-1.287.581-1.287 1.299a1.293 1.293 0 0 0 1.774 1.205c.304-.124.548-.362.683-.664.085-.167.133-.351.14-.54a1.29 1.29 0 0 0-.424-.945c.405-.325.84-.611 1.297-.856l3.365 2.697.97.779.36.286c.264.206.42.521.425.857v12.654c0 .29-.115.57-.318.775a1.08 1.08 0 0 1-.767.32H5.297c-.6 0-1.085-.49-1.085-1.095V8.974c.005-.336.161-.65.424-.856l5.658-4.56a1.925 1.925 0 0 1 1.204-.427v.004zm0-.218c-.485 0-.956.166-1.335.47l-5.676 4.56A1.32 1.32 0 0 0 4 8.974v12.633a1.308 1.308 0 0 0 1.297 1.31h12.406A1.308 1.308 0 0 0 19 21.607V8.974a1.289 1.289 0 0 0-.492-1.027l-.36-.287-.988-.796-3.348-2.689a.215.215 0 0 0-.131-.047.193.193 0 0 0-.098.026c-.47.242-.915.528-1.33.856a.206.206 0 0 0-.081.154.22.22 0 0 0 .068.167 1.09 1.09 0 0 1-.335 1.79 1 1 0 0 1-.424.08 1.083 1.083 0 0 1-1.01-1.084c0-.574.443-1.05 1.01-1.086a.202.202 0 0 0 .152-.064c.064-.068.136-.133.212-.201.38-.308.787-.578 1.217-.81a.214.214 0 0 0 .106-.17.21.21 0 0 0-.08-.18l-.25-.206a2.157 2.157 0 0 0-1.34-.47v-.013z"/>
        <path fill="#F79" fill-rule="nonzero" d="M8.982 14.916c-.276.005-.55-.049-.806-.16a1.907 1.907 0 0 1-.624-.419c-.174-.182-.31-.4-.403-.638A2.035 2.035 0 0 1 7 12.92a1.974 1.974 0 0 1 .15-.768c.199-.487.573-.872 1.042-1.075.256-.11.53-.164.806-.159a1.958 1.958 0 0 1 1.849 1.23 2.045 2.045 0 0 1-.415 2.19 2.01 2.01 0 0 1-1.434.58h-.016zm0-3.009a.908.908 0 0 0-.653.277 1.13 1.13 0 0 0 0 1.457.908.908 0 0 0 1.305 0 1.13 1.13 0 0 0 0-1.457.908.908 0 0 0-.652-.277z"/>
        <path fill="#4D4D4D" fill-rule="nonzero" d="M8.483 11.116c.31-.003.62.046.907.143.529.184.952.529 1.18.963a1.518 1.518 0 0 1 0 1.393c-.11.217-.274.412-.481.573-.207.17-.45.305-.719.398a2.817 2.817 0 0 1-.906.144 2.736 2.736 0 0 1-.897-.144 2.28 2.28 0 0 1-.714-.398 1.801 1.801 0 0 1-.482-.573 1.52 1.52 0 0 1-.14-.696 1.491 1.491 0 0 1 .17-.693c.228-.437.653-.783 1.185-.967.284-.097.59-.146.897-.143zm0 2.853c.324.005.636-.1.863-.29.475-.432.475-1.092 0-1.524-.48-.388-1.246-.388-1.726 0-.475.432-.475 1.092 0 1.524.228.19.54.295.863.29zm0-3.052c-.66-.004-1.297.207-1.77.589-.221.185-.4.402-.525.64a1.694 1.694 0 0 0 0 1.548c.124.239.303.455.526.638.227.181.493.326.786.425a3.193 3.193 0 0 0 1.99 0c.297-.097.567-.242.796-.425.223-.182.4-.399.521-.637.129-.245.195-.51.193-.776a1.589 1.589 0 0 0-.193-.772c-.4-.758-1.313-1.243-2.314-1.23h-.01zm0 2.853a1.044 1.044 0 0 1-.694-.234.726.726 0 0 1-.285-.617.764.764 0 0 1 .285-.621 1.142 1.142 0 0 1 1.388 0c.38.353.38.885 0 1.238-.181.154-.433.24-.694.234z"/>
        <path fill="#F79" d="M8.497 19.917a.5.5 0 0 1-.439-.248.448.448 0 0 1 .027-.484l4.985-7.058a.512.512 0 0 1 .434-.21c.099 0 .196.029.277.082a.458.458 0 0 1 .135.654l-5.002 7.054a.513.513 0 0 1-.434.206l.017.004z"/>
        <path fill="#4D4D4D" fill-rule="nonzero" d="M13.414 12.117c.074 0 .147.02.21.06a.36.36 0 0 1 .158.231.348.348 0 0 1-.058.27L8.901 19.56a.383.383 0 0 1-.315.156.382.382 0 0 1-.205-.06.351.351 0 0 1-.105-.497l4.823-6.881c.07-.1.188-.16.315-.16zm0-.2a.587.587 0 0 0-.487.248L8.1 19.046a.546.546 0 0 0 .16.778.609.609 0 0 0 .814-.152l4.826-6.877a.546.546 0 0 0-.16-.778.59.59 0 0 0-.326-.096v-.004z"/>
        <path fill="#F79" fill-rule="nonzero" d="M14 19.916a1.957 1.957 0 0 1-.81-.16 1.977 1.977 0 0 1-.631-.42 2.067 2.067 0 0 1-.405-2.198c.096-.237.233-.454.405-.64.18-.182.393-.325.627-.421.257-.11.532-.165.81-.16.277-.004.553.05.81.16a1.9 1.9 0 0 1 .635.42c.172.186.31.403.405.64a2.049 2.049 0 0 1-.417 2.198c-.184.182-.4.325-.636.421-.256.11-.532.164-.81.16H14zm0-3.018a.913.913 0 0 0-.656.278 1.132 1.132 0 0 0 0 1.46c.172.183.41.284.656.278.246.004.482-.1.652-.286a1.118 1.118 0 0 0 0-1.46.897.897 0 0 0-.652-.27z"/>
        <path fill="#4D4D4D" fill-rule="nonzero" d="M13.474 16.134c.31-.002.618.046.906.142.533.179.959.521 1.186.954.116.217.175.45.174.687 0 .474-.234.929-.646 1.262a2.286 2.286 0 0 1-.714.394 2.886 2.886 0 0 1-.906.142 2.757 2.757 0 0 1-.897-.142c-.54-.182-.968-.534-1.186-.978a1.49 1.49 0 0 1 0-1.38c.117-.212.28-.405.482-.568.203-.17.445-.305.714-.395.284-.097.589-.145.896-.142l-.01.024zm.01 2.804c.323.004.634-.1.862-.288.242-.2.372-.472.357-.753.013-.28-.116-.553-.357-.753-.48-.385-1.249-.385-1.73 0a.941.941 0 0 0-.352.753c-.014.28.113.552.352.753.227.192.541.297.867.292v-.004zm0-3.021a2.97 2.97 0 0 0-.994.158c-.293.098-.56.243-.785.426-.221.182-.4.396-.526.63a1.632 1.632 0 0 0-.178.786c-.005.27.06.539.188.789.124.236.302.45.525.63.227.18.494.324.786.423.315.106.652.16.993.158.342.001.681-.053.998-.158.295-.097.564-.24.79-.422.225-.18.404-.395.526-.631a1.667 1.667 0 0 0 0-1.555 2.073 2.073 0 0 0-.525-.63 2.45 2.45 0 0 0-.791-.427 3.017 3.017 0 0 0-.998-.157l-.01-.02zm0 2.828a1.034 1.034 0 0 1-.695-.233c-.38-.35-.38-.877 0-1.226a1.15 1.15 0 0 1 1.389 0c.38.35.38.877 0 1.226a1.05 1.05 0 0 1-.695.233z"/>
        <path fill="#D89078" d="M15.863 8.917c-.573 0-1.117-.028-1.619-.084a7.02 7.02 0 0 1-2.237-.546c-.589-.285-.925-.653-1.004-1.101a1.892 1.892 0 0 1 .523-1.395c.241.009.474.104.664.27-.415.392-.606.756-.568.994.037.238.265.415.643.593.1.046.211.093.34.14a8.07 8.07 0 0 0 1.697.345c.49.051 1.013.08 1.565.08.34 0 .689 0 1.041-.033.963-.055 1.921-.184 2.868-.388a11.802 11.802 0 0 0 2.834-.984c1.316-.705 1.897-1.554 1.727-2.529-.13-.674-.594-1.205-1.191-1.362a4.843 4.843 0 0 0-1.752-.275c-1.35.039-2.692.277-3.988.709a18.366 18.366 0 0 0-3.763 1.651l-.536-.466c2.042-1.302 5.544-2.617 8.283-2.617a5.458 5.458 0 0 1 1.955.308c.813.243 1.437.978 1.614 1.903.345 1.983-1.502 3.569-5.063 4.348-.643.14-1.328.247-2.033.322-.706.075-1.357.117-2 .117z"/>
        <path fill="#4D4D4D" fill-rule="nonzero" d="M21.325 2.145c.641-.02 1.28.08 1.892.294.765.221 1.352.899 1.52 1.754.327 1.853-1.459 3.345-4.903 4.068-.63.136-1.3.24-1.99.312-.69.072-1.328.104-1.961.104-.56 0-1.095-.027-1.586-.081a6.954 6.954 0 0 1-2.17-.52c-.547-.258-.857-.588-.927-.986a.79.79 0 0 1 0-.171c.033-.405.204-.78.478-1.05a.94.94 0 0 1 .446.159c-.364.375-.544.719-.499.976.045.258.282.452.69.656.099.045.213.09.348.14a7.842 7.842 0 0 0 1.692.34c.482.049 1 .076 1.548.076.335 0 .683 0 1.03-.032.96-.051 1.916-.176 2.86-.375.97-.2 1.914-.524 2.815-.967 1.34-.701 1.933-1.569 1.757-2.573-.136-.687-.61-1.232-1.226-1.41a5.054 5.054 0 0 0-1.757-.271 13.861 13.861 0 0 0-4.008.705c-1.271.384-2.503.91-3.677 1.573l-.356-.312c2.019-1.211 5.357-2.41 7.976-2.41h.008zm-.008-.226c-2.615 0-6.064 1.189-8.217 2.522l-.126.082.706.61a17.91 17.91 0 0 1 3.747-1.623 13.651 13.651 0 0 1 3.898-.683 4.816 4.816 0 0 1 1.688.258c.557.143.99.626 1.115 1.243.364 2.08-3.269 3.029-4.413 3.273-.927.194-1.865.318-2.807.37-.347 0-.686.032-1.021.032-.535 0-1.05-.027-1.528-.076a7.799 7.799 0 0 1-1.635-.33 3.75 3.75 0 0 1-.323-.131c-.408-.181-.551-.371-.572-.493-.02-.122.099-.452.528-.855l.094-.09a1.165 1.165 0 0 0-.854-.375A1.953 1.953 0 0 0 11 6.933c0 .072.008.145.02.216.154.552.547.983 1.046 1.148.718.299 1.47.48 2.235.538.503.055 1.042.082 1.602.082a19.564 19.564 0 0 0 3.992-.42c3.567-.765 5.414-2.351 5.063-4.345-.177-.93-.807-1.674-1.635-1.93a5.531 5.531 0 0 0-1.957-.303h-.049z"/>
        <path fill="#FFD9C7" d="M13 5.314a8.306 8.306 0 0 0-1.188.603 1.364 1.364 0 0 0-.812-.25c.066-.052.132-.1.206-.148.351-.228.73-.43 1.13-.602l.664.397z"/>
        <path fill="#F2B9A7" d="M4.895 21.796V8.882c.006-.343.167-.665.44-.875l5.858-4.66c.237-.185.513-.315.807-.381a2.014 2.014 0 0 0-1.685.38L4.439 8.003c-.272.21-.434.532-.439.875v12.918c0 .62.503 1.12 1.123 1.12h.878a1.122 1.122 0 0 1-1.106-1.12z"/>
    </g>
</svg>
