<svg xmlns="http://www.w3.org/2000/svg" width="26" height="23" viewBox="0 0 26 23">
    <g fill="none" fill-rule="evenodd">
        <path fill="#EFEFEF" d="M23.63 15.415c-1.268 2.75-2.459 6.017-4.786 7.126-2.327 1.11-5.79.088-8.362-1.783-2.573-1.87-4.25-4.59-5.385-7.734-1.136-3.145-1.72-6.79-.091-8.737 1.628-1.947 5.46-2.219 8.648-2.276 3.189-.058 5.738.088 7.942 1.147 2.204 1.06 4.094 3.06 4.368 5.157.274 2.096-1.064 4.345-2.335 7.1z"/>
        <path fill="#FFF" d="M1.102 17C1.046 17 1 16.959 1 16.908V6.078C1 5.482 1.535 5 2.194 5h16.624c.655.006 1.182.487 1.182 1.078v10.83c0 .05-.046.092-.102.092H1.102z"/>
        <path fill="#4D4D4D" fill-rule="nonzero" d="M18.719 5.196c.595.002 1.077.472 1.08 1.052v11.556H1.2V6.248c.003-.58.485-1.05 1.08-1.052H18.72zm0-.196H2.28C1.574 5 1 5.559 1 6.248v11.556c0 .108.09.196.201.196H19.8a.199.199 0 0 0 .201-.196V6.248C20 5.558 19.426 5 18.719 5z"/>
        <path fill="#CCC" d="M3.098 16A.1.1 0 0 1 3 15.897V6.103A.1.1 0 0 1 3.098 6h14.804a.1.1 0 0 1 .098.103v9.773a.1.1 0 0 1-.098.103L3.098 16z"/>
        <path fill="#4D4D4D" fill-rule="nonzero" d="M3.193 6.202c4.871 0 9.743.036 14.614.036v9.572H3.193V6.202zm0-.202A.198.198 0 0 0 3 6.202v9.596c0 .112.087.202.193.202h14.614c.106 0 .193-.09.193-.202V6.226a.198.198 0 0 0-.193-.202H3.193V6z"/>
        <path fill="#F79" d="M10.5 12a.13.13 0 0 1-.076-.027l-3.812-3.46A4.842 4.842 0 0 1 5.118 6.01a4.59 4.59 0 0 1-.08-1.625C5.292 2.49 6.716.895 8.705.272c1.99-.621 4.196-.16 5.683 1.19.878.787 1.433 1.822 1.574 2.934a4.59 4.59 0 0 1-.088 1.66 4.826 4.826 0 0 1-1.486 2.457l-3.812 3.46A.13.13 0 0 1 10.5 12z"/>
        <path fill="#4D4D4D" fill-rule="nonzero" d="M10.5.188c2.14 0 4.07 1.172 4.89 2.97.82 1.8.368 3.87-1.145 5.247L10.5 11.812 6.76 8.405A4.648 4.648 0 0 1 5.321 6.01a4.45 4.45 0 0 1-.066-1.577C5.573 2.015 7.824.193 10.5.188zm0-.188C7.714 0 5.368 1.893 5.037 4.41a4.607 4.607 0 0 0 .083 1.63c.22.947.737 1.816 1.49 2.5l3.746 3.403c.037.036.09.057.144.057.055 0 .107-.02.145-.057L14.39 8.54a4.862 4.862 0 0 0 1.482-2.467 4.608 4.608 0 0 0 .09-1.664C15.633 1.893 13.287 0 10.5 0z"/>
        <path fill="#F44C81" d="M10.097 8a3.063 3.063 0 0 1-2.194-.89 3.13 3.13 0 0 1 0-4.4 3.112 3.112 0 0 1 4.184.205 3.13 3.13 0 0 1 .204 4.194c-.583.58-1.373.9-2.194.89z"/>
        <path fill="#4D4D4D" fill-rule="nonzero" d="M10.002 2.182A2.817 2.817 0 1 1 10 7.817a2.817 2.817 0 0 1 .002-5.635zm0-.182a3 3 0 1 0-.004 6 3 3 0 0 0 .004-6z"/>
        <path fill="#EF608F" d="M8.08 8.474a5.013 5.013 0 0 1-1.261-2.472 5.381 5.381 0 0 1-.058-1.628C7.021 2.026 8.796.202 11 .015 8.52-.19 6.33 1.733 6.036 4.375a5.381 5.381 0 0 0 .058 1.627 5.015 5.015 0 0 0 1.261 2.484L10.638 12l.362-.387-2.92-3.14z"/>
        <path fill="#E0447C" d="M8.922 7.113c-.969-.808-1.304-2.006-.862-3.088C8.5 2.943 9.642 2.165 11 2.02c-1.372-.132-2.713.406-3.448 1.382-.736.977-.736 2.22 0 3.196.735.976 2.076 1.514 3.448 1.382-.79-.087-1.52-.392-2.078-.867z"/>
        <path fill="#E0E0E0" d="M4 5h-.855c-.631.002-1.143.449-1.145 1v11h.855V6c.002-.551.513-.998 1.145-1z"/>
        <path fill="#CCC" d="M1.311 20a.103.103 0 0 1-.083-.042L.005 18.29a.108.108 0 0 1 0-.064v-1.12c0-.059.046-.106.104-.106H21.89c.058 0 .104.047.104.106v1.12a.108.108 0 0 1 0 .064l-1.223 1.668a.103.103 0 0 1-.083.042H1.31z"/>
        <path fill="#4D4D4D" fill-rule="nonzero" d="M21.778 17.198v1.046l-1.194 1.558H1.416l-1.21-1.558v-1.046h21.572zm0-.198H.206a.202.202 0 0 0-.206.198v1.046a.174.174 0 0 0 .041.12l1.194 1.557A.2.2 0 0 0 1.4 20h19.184a.2.2 0 0 0 .164-.08l1.21-1.557a.174.174 0 0 0 .042-.119v-1.046a.202.202 0 0 0-.206-.198h-.016z"/>
        <path fill="#AAA" d="M.81 17H0v1.21L1.19 20H2L.81 18.21zM3 6v9h1V6z"/>
    </g>
</svg>
