<svg xmlns="http://www.w3.org/2000/svg" width="23" height="23" viewBox="0 0 23 23">
    <g fill="none" fill-rule="evenodd">
        <path fill="#EFEFEF" d="M17.007 4.28c2.407 2.02 5.323 4.093 5.887 6.79.564 2.698-1.2 6.025-3.607 8.21-2.408 2.187-5.42 3.229-8.766 3.593-3.347.363-7.016.037-8.55-2.149-1.534-2.186-.949-6.225-.292-9.551.657-3.327 1.376-5.918 2.913-7.938C6.129 1.215 8.485-.228 10.607.03c2.122.257 4 2.243 6.4 4.25z"/>
        <g transform="translate(1 5)">
            <rect width="15.631" height="16.608" x=".243" y=".126" fill="#FFF" rx="5.9"/>
            <path fill="#4D4D4D" fill-rule="nonzero" d="M14.852.218c.519 0 .94.447.94.998v14.413c0 .265-.098.52-.275.708a.912.912 0 0 1-.665.293H1.287c-.515 0-.933-.44-.94-.986V1.23c0-.266.1-.52.277-.707A.912.912 0 0 1 1.29.233h13.566l-.004-.015zm.004-.17H1.29C.675.048.176.577.174 1.231v14.413c.002.653.501 1.182 1.116 1.182h13.566c.614 0 1.113-.53 1.113-1.182V1.23c0-.653-.499-1.183-1.113-1.183z"/>
        </g>
        <path fill="#CCC" d="M9.093 22A.092.092 0 0 1 9 21.909v-6.5c0-.226.187-.409.418-.409h5.167c.23.002.415.185.415.409v6.5c0 .05-.042.091-.093.091H9.093z"/>
        <path fill="#4D4D4D" fill-rule="nonzero" d="M14.507 15.178c.084 0 .163.033.222.09.058.059.09.138.09.22v6.334H9.18v-6.334c0-.171.141-.31.315-.31h5.011zm0-.178h-5.01a.492.492 0 0 0-.497.488v6.334a.18.18 0 0 0 .181.178h5.638c.1 0 .181-.08.181-.178v-6.334a.48.48 0 0 0-.143-.345.497.497 0 0 0-.35-.143z"/>
        <path fill="#E0E0E0" d="M1.846 20.977V6.034a.984.984 0 0 1 .333-.732A1.2 1.2 0 0 1 2.987 5h-.862c-.618.008-1.116.46-1.125 1.02v14.942c-.002.566.5 1.03 1.125 1.038H3a1.203 1.203 0 0 1-.812-.294.986.986 0 0 1-.342-.73z"/>
        <path fill="#F79" d="M.085 10.748l1.273-6.224c.106-.6.405-1.124.928-1.124h13.208c.523 0 .821.512.944 1.112l1.256 6.224"/>
        <path fill="#4D4D4D" d="M17.613 10.768l-1.257-6.22c-.064-.312-.275-1.036-.862-1.036H2.286c-.588 0-.798.724-.86 1.036l-1.26 6.22L0 10.724 1.257 4.5c.152-.756.526-1.2 1.018-1.2h13.219c.499 0 .872.432 1.018 1.2l1.26 6.224-.16.044z"/>
        <path fill="#CCC" d="M4.403 10.748l.62-7.348h3.734v7.348"/>
        <path fill="#4D4D4D" d="M4.487 10.756l-.167-.02.62-7.336c.003-.052.04-.092.083-.092h3.734c.046 0 .083.045.083.1v7.34h-.173V3.512h-3.57l-.61 7.244z"/>
        <path fill="#CCC" d="M13.836 10.748L13.142 3.4h3.09c.578 0 .908.512 1.043 1.112l1.388 6.224"/>
        <path fill="#4D4D4D" d="M18.572 10.768l-1.387-6.22c-.071-.312-.304-1.036-.952-1.036h-3l.682 7.224-.188.02-.678-7.332a.108.108 0 0 1 .026-.08.084.084 0 0 1 .067-.032h3.09c.552 0 .964.432 1.125 1.2l1.392 6.224-.177.032z"/>
        <path fill="#F79" d="M13.713 10.206c.002.878-.409 1.69-1.08 2.138a1.922 1.922 0 0 1-2.16 0c-.672-.446-1.083-1.26-1.08-2.138h4.334-.014z"/>
        <path fill="#4D4D4D" fill-rule="nonzero" d="M11.553 12.768a2.029 2.029 0 0 1-1.123-.342c-.695-.466-1.12-1.31-1.12-2.22 0-.052.037-.094.083-.094h4.334c.046 0 .083.042.083.094-.004.916-.439 1.761-1.143 2.22a2.017 2.017 0 0 1-1.114.341zM9.477 10.3c.033.805.422 1.537 1.036 1.95a1.87 1.87 0 0 0 2.077 0c.62-.415 1.01-1.154 1.037-1.965l-4.15.015z"/>
        <path fill="#CCC" d="M17.7 10.206c.003.878-.408 1.692-1.08 2.138a1.922 1.922 0 0 1-2.16 0c-.672-.446-1.083-1.26-1.08-2.138h4.333-.013z"/>
        <path fill="#4D4D4D" fill-rule="nonzero" d="M15.54 12.768c-.395 0-.783-.118-1.123-.342-.695-.466-1.12-1.31-1.12-2.22 0-.052.037-.094.083-.094h4.333c.046 0 .084.042.084.094-.002.913-.432 1.757-1.13 2.22-.342.225-.731.343-1.127.341zM13.463 10.3c.034.805.425 1.537 1.04 1.95a1.87 1.87 0 0 0 2.077 0c.618-.416 1.008-1.155 1.037-1.965l-4.154.015z"/>
        <path fill="#F79" d="M4.718 10.206c.005.876-.43 1.689-1.147 2.138-.713.443-1.6.443-2.314 0C.538 11.896.098 11.084.1 10.206h4.643-.025z"/>
        <path fill="#4D4D4D" fill-rule="nonzero" d="M2.404 12.768c-.423 0-.839-.118-1.204-.342-.745-.466-1.2-1.31-1.2-2.22 0-.052.04-.094.09-.094h4.642c.05 0 .09.042.09.094 0 .91-.456 1.754-1.2 2.22-.37.227-.79.345-1.218.341zM.179 10.3a2.424 2.424 0 0 0 1.114 1.95c.688.42 1.537.42 2.225 0a2.42 2.42 0 0 0 1.125-1.95H.179z"/>
        <g>
            <path fill="#CCC" d="M8.707 10.206c.002.878-.438 1.69-1.157 2.138a2.189 2.189 0 0 1-2.318 0c-.719-.448-1.159-1.26-1.157-2.138h4.643-.01z"/>
            <path fill="#4D4D4D" fill-rule="nonzero" d="M6.393 12.768a2.286 2.286 0 0 1-1.204-.342c-.74-.468-1.192-1.312-1.189-2.22 0-.052.04-.094.09-.094h4.642c.05 0 .09.042.09.094 0 .912-.458 1.755-1.204 2.22a2.282 2.282 0 0 1-1.225.341zM4.168 10.3a2.41 2.41 0 0 0 1.11 1.95c.688.42 1.538.42 2.226 0a2.41 2.41 0 0 0 1.11-1.965l-4.446.015z"/>
        </g>
        <path fill="#AAA" d="M10 15h-.698c-.167 0-.302.151-.302.337V22h.698v-6.663c0-.186.135-.337.302-.337z"/>
        <path fill="#EF608F" d="M3 3h-.729c-.54 0-.848.5-.957 1.07L0 10h.725l1.29-5.93C2.152 3.5 2.46 3 3 3z"/>
        <g fill="#4D4D4D">
            <path d="M17.613 10.768l-1.257-6.22c-.064-.312-.275-1.036-.862-1.036H2.286c-.588 0-.798.724-.86 1.036l-1.26 6.22L0 10.724 1.257 4.5c.152-.756.526-1.2 1.018-1.2h13.219c.499 0 .872.432 1.018 1.2l1.26 6.224-.16.044z"/>
        </g>
        <path fill="#EF608F" d="M2.122 12.742C1.317 12.379.823 11.716.826 11H0c-.002.715.49 1.377 1.293 1.742.516.226 1.12.307 1.707.229a3.11 3.11 0 0 1-.878-.23z"/>
        <g fill="#4D4D4D" fill-rule="nonzero">
            <path d="M2.404 12.768c-.423 0-.839-.118-1.204-.342-.745-.466-1.2-1.31-1.2-2.22 0-.052.04-.094.09-.094h4.642c.05 0 .09.042.09.094 0 .91-.456 1.754-1.2 2.22-.37.227-.79.345-1.218.341zM.179 10.3a2.424 2.424 0 0 0 1.114 1.95c.688.42 1.537.42 2.225 0a2.42 2.42 0 0 0 1.125-1.95H.179z"/>
        </g>
    </g>
</svg>
