<svg xmlns="http://www.w3.org/2000/svg" width="38" height="36" viewBox="0 0 38 36">
    <g fill="none" fill-rule="evenodd">
        <path fill="#EFEFEF" d="M37.82 18.55c.81 4.36-1.156 9.802-5.187 13.336-4.03 3.535-10.167 5.13-14.79 3.432-4.621-1.698-7.765-6.71-11.095-11.51-3.33-4.802-6.88-9.368-6.744-13.98C.139 5.219 3.946.576 8.216.053c4.269-.524 9.005 3.052 12.699 4.996 3.693 1.944 6.328 2.257 9.436 4.063 3.107 1.805 6.67 5.083 7.47 9.438z"/>
        <path fill="#CCC" d="M27.602 8H4.398C3.073 8 2 9.045 2 10.333c0 1.289 1.073 2.334 2.398 2.334h23.204C28.927 12.667 30 13.71 30 15v-4.667c0-.619-.253-1.212-.702-1.65A2.432 2.432 0 0 0 27.602 8z"/>
        <path fill="#4D4D4D" fill-rule="nonzero" d="M29.86 15a.126.126 0 0 1-.128-.123 2.07 2.07 0 0 0-.655-1.51 2.31 2.31 0 0 0-1.591-.626H4.504C3.12 12.741 2 11.68 2 10.371 2 9.06 3.12 8 4.504 8h22.982a2.577 2.577 0 0 1 1.78.694c.473.447.737 1.054.734 1.686v4.497a.12.12 0 0 1-.041.09.134.134 0 0 1-.098.033zM4.505 8.254c-1.24 0-2.246.952-2.246 2.126 0 1.175 1.005 2.127 2.246 2.127h22.982c.954-.001 1.826.513 2.246 1.324v-3.45c0-1.175-1.006-2.127-2.246-2.127H4.504z"/>
        <path fill="#FFF" d="M30 29.668C30 30.956 28.927 32 27.603 32h-23.2a2.432 2.432 0 0 1-1.699-.681A2.3 2.3 0 0 1 2 29.669V11c0 1.288 1.073 2.332 2.397 2.332h23.206c1.324 0 2.397 1.044 2.397 2.331v14.005z"/>
        <path fill="#4D4D4D" fill-rule="nonzero" d="M27.486 32H4.504C3.126 31.997 2.009 30.917 2 29.58V11.125c0-.069.058-.125.13-.125.07 0 .128.056.128.125 0 .578.237 1.133.658 1.542a2.28 2.28 0 0 0 1.588.638h22.982a2.548 2.548 0 0 1 1.776.71 2.4 2.4 0 0 1 .738 1.72V29.58c-.009 1.34-1.132 2.423-2.514 2.42zM2.258 29.58c.003 1.202 1.007 2.177 2.246 2.18h22.982c1.24 0 2.246-.976 2.246-2.18V15.735a2.147 2.147 0 0 0-.654-1.548 2.28 2.28 0 0 0-1.592-.642H4.504a2.512 2.512 0 0 1-2.246-1.357V29.58z"/>
        <path fill="#F79" d="M30 18v6.22c.016.414-.327.763-.768.78h-4.854a.901.901 0 0 1-.749-.392l-1.496-2.285a.779.779 0 0 1 0-.87l1.51-2.3a.852.852 0 0 1 .715-.378h4.893c.431-.026.762-.37.748-.775z"/>
        <path fill="#4D4D4D" fill-rule="nonzero" d="M29.138 25h-4.713a.953.953 0 0 1-.824-.498l-1.458-2.528a1.11 1.11 0 0 1 0-1.091l1.449-2.527a.923.923 0 0 1 .796-.499h4.75c.361-.019.642-.345.628-.732 0-.07.052-.125.117-.125.064 0 .116.056.116.125v6.878a.997.997 0 0 1-.237.69.87.87 0 0 1-.624.307zm-4.75-6.883a.7.7 0 0 0-.596.358l-1.467 2.542a.824.824 0 0 0 0 .828l1.458 2.532c.134.23.37.372.624.374h4.73c.363-.022.643-.35.63-.738v-6.206a.82.82 0 0 1-.63.31h-4.749z"/>
        <path fill="#F44C81" d="M25 22a1 1 0 1 1 0 2 1 1 0 0 1 0-2z"/>
        <path fill="#4D4D4D" fill-rule="nonzero" d="M25.004 24a1 1 0 1 1-.008-2 1 1 0 0 1 .008 2zm0-1.8a.805.805 0 1 0-.008 1.609.805.805 0 0 0 .008-1.61z"/>
        <path fill="#E0E0E0" d="M3.91 29.666V12.923C3.34 12.489 3 11.769 3 11v18.666C3 30.956 3.936 32 5.09 32H6c-1.155 0-2.09-1.045-2.09-2.334z"/>
        <path fill="#4D4D4D" fill-rule="nonzero" d="M27.486 32H4.504C3.126 31.997 2.009 30.917 2 29.58V11.125c0-.069.058-.125.13-.125.07 0 .128.056.128.125 0 .578.237 1.133.658 1.542a2.28 2.28 0 0 0 1.588.638h22.982a2.548 2.548 0 0 1 1.776.71 2.4 2.4 0 0 1 .738 1.72V29.58c-.009 1.34-1.132 2.423-2.514 2.42zM2.258 29.58c.003 1.202 1.007 2.177 2.246 2.18h22.982c1.24 0 2.246-.976 2.246-2.18V15.735a2.147 2.147 0 0 0-.654-1.548 2.28 2.28 0 0 0-1.592-.642H4.504a2.512 2.512 0 0 1-2.246-1.357V29.58z"/>
        <path fill="#AAA" d="M3.91 10.5C3.91 9.12 4.844 8 6 8h-.91C3.937 8 3 9.12 3 10.5S3.936 13 5.09 13H6c-1.155 0-2.09-1.12-2.09-2.5z"/>
        <path fill="#4D4D4D" fill-rule="nonzero" d="M29.86 15a.126.126 0 0 1-.128-.123 2.07 2.07 0 0 0-.655-1.51 2.31 2.31 0 0 0-1.591-.626H4.504C3.12 12.741 2 11.68 2 10.371 2 9.06 3.12 8 4.504 8h22.982a2.577 2.577 0 0 1 1.78.694c.473.447.737 1.054.734 1.686v4.497a.12.12 0 0 1-.041.09.134.134 0 0 1-.098.033zM4.505 8.254c-1.24 0-2.246.952-2.246 2.126 0 1.175 1.005 2.127 2.246 2.127h22.982c.954-.001 1.826.513 2.246 1.324v-3.45c0-1.175-1.006-2.127-2.246-2.127H4.504z"/>
        <path fill="#F79" d="M23 11H5l.6-2.678.276-1.217c.084-.384.305-.712.611-.91a1.18 1.18 0 0 1 1.011-.138l7.104 2.265L23 11z"/>
        <path fill="#4D4D4D" fill-rule="nonzero" d="M22.87 11H5.127a.131.131 0 0 1-.097-.055.132.132 0 0 1-.026-.115l.864-3.675c.089-.4.327-.742.659-.95.332-.207.73-.26 1.099-.147l15.28 4.657c.062.016.102.08.093.148 0 .076-.058.137-.129.137zm-17.578-.274h16.663L7.559 6.338a1.089 1.089 0 0 0-.897.116 1.224 1.224 0 0 0-.543.772l-.827 3.5z"/>
        <path fill="#EF608F" d="M6.43 7.105c.073-.448.285-.815.57-.99l-.14-.058c-.253-.11-.525-.06-.753.138-.228.198-.392.526-.455.91l-.205 1.217L5 11h.777l.446-2.678.206-1.217z"/>
        <path fill="#4D4D4D" fill-rule="nonzero" d="M22.87 11H5.127a.131.131 0 0 1-.097-.055.132.132 0 0 1-.026-.115l.864-3.675c.089-.4.327-.742.659-.95.332-.207.73-.26 1.099-.147l15.28 4.657c.062.016.102.08.093.148 0 .076-.058.137-.129.137zm-17.578-.274h16.663L7.559 6.338a1.089 1.089 0 0 0-.897.116 1.224 1.224 0 0 0-.543.772l-.827 3.5z"/>
        <path fill="#EF608F" d="M24.103 25.559l-1.794-2.57a.831.831 0 0 1 0-.978l1.811-2.585c.182-.264.507-.425.857-.426h-1.15c-.35 0-.675.162-.857.426l-1.81 2.585a.831.831 0 0 0 0 .978l1.793 2.57c.193.273.532.44.897.441H25a1.102 1.102 0 0 1-.897-.441zM30 18v-1c.017.532-.429.978-1 1h1z"/>
        <path fill="#4D4D4D" fill-rule="nonzero" d="M29.138 25h-4.713a.953.953 0 0 1-.824-.498l-1.458-2.528a1.11 1.11 0 0 1 0-1.091l1.449-2.527a.923.923 0 0 1 .796-.499h4.75c.361-.019.642-.345.628-.732 0-.07.052-.125.117-.125.064 0 .116.056.116.125v6.878a.997.997 0 0 1-.237.69.87.87 0 0 1-.624.307zm-4.75-6.883a.7.7 0 0 0-.596.358l-1.467 2.542a.824.824 0 0 0 0 .828l1.458 2.532c.134.23.37.372.624.374h4.73c.363-.022.643-.35.63-.738v-6.206a.82.82 0 0 1-.63.31h-4.749z"/>
    </g>
</svg>
