<svg xmlns="http://www.w3.org/2000/svg" width="29" height="29" viewBox="0 0 29 29">
    <g fill="none" fill-rule="evenodd">
        <path fill="#EFEFEF" d="M4.709 19.664a19.377 19.377 0 0 1-1.643-9.56c.24-3.539 1.295-7.458 3.815-9.094C9.401-.627 13.376.004 16.83.953c3.454.949 6.387 2.059 7.93 4.165 1.545 2.107 1.7 5.167 2.549 8.616.85 3.449 2.379 7.296 1.347 10.124-1.033 2.827-4.613 4.611-8.133 5.043a15.033 15.033 0 0 1-9.713-2.202 16.295 16.295 0 0 1-6.1-7.035z"/>
        <path fill="#F79" d="M10.5 29a2.5 2.5 0 1 1 0-5 2.5 2.5 0 0 1 0 5z"/>
        <path fill="#4D4D4D" fill-rule="nonzero" d="M10.5 24.225a2.252 2.252 0 1 1-.045 4.505 2.252 2.252 0 0 1 .045-4.505zm0-.225a2.5 2.5 0 1 0 0 5 2.5 2.5 0 0 0 0-5z"/>
        <path fill="#F44C81" d="M11.005 27a1 1 0 1 1-.01-2 1 1 0 0 1 .01 2z"/>
        <path fill="#4D4D4D" fill-rule="nonzero" d="M11.005 25.228a.772.772 0 1 1 .009 1.544.772.772 0 0 1-.01-1.544zm0-.228a1 1 0 1 0-.01 2 1 1 0 0 0 .01-2z"/>
        <path fill="#F79" d="M21.486 29a2.5 2.5 0 1 1 .028-5 2.5 2.5 0 0 1-.028 5z"/>
        <path fill="#4D4D4D" fill-rule="nonzero" d="M21.5 24.225a2.252 2.252 0 1 1-.045 4.504 2.252 2.252 0 0 1 .045-4.504zm0-.225a2.5 2.5 0 1 0 0 5 2.5 2.5 0 0 0 0-5z"/>
        <circle cx="22" cy="26" r="1" fill="#F44C81"/>
        <path fill="#4D4D4D" fill-rule="nonzero" d="M21.995 25.228a.772.772 0 1 1-.762.772c0-.424.343-.77.767-.772h-.005zM22 25a1 1 0 1 0 0 2 1 1 0 0 0 0-2z"/>
        <path fill="#D89078" d="M8.248 24C7.009 23.997 6.005 22.88 6 21.498c-.004-1.254.832-2.314 1.948-2.47h.033a.805.805 0 0 1 .267-.026.58.58 0 0 1 .276.073c.053.03.079.099.06.162l-.383 1.149a.12.12 0 0 1-.098.084c-.471.075-.81.544-.777 1.073.034.53.427.94.903.942H23.33c.37 0 .67.335.67.747 0 .413-.3.747-.67.747L8.248 24z"/>
        <path fill="#4D4D4D" fill-rule="nonzero" d="M8.33 19.22a.44.44 0 0 1 .222.058l-.36 1.117c-.515.09-.881.585-.846 1.141.036.557.462.993.984 1.007h14.893c.302 0 .546.261.546.583 0 .322-.244.583-.546.583H8.33c-1.161 0-2.103-1.006-2.103-2.248-.002-1.122.779-2.07 1.821-2.212h.047a.814.814 0 0 1 .235 0v-.03zm0-.218a.895.895 0 0 0-.31.034c-1.161.158-2.03 1.219-2.02 2.47.003 1.376 1.047 2.491 2.335 2.494h14.888c.43 0 .777-.371.777-.83 0-.458-.348-.83-.777-.83H8.33c-.406-.004-.741-.341-.77-.775-.03-.433.258-.817.66-.884a.23.23 0 0 0 .189-.163l.36-1.116a.254.254 0 0 0-.11-.301.724.724 0 0 0-.329-.084v-.015z"/>
        <path fill="#D89078" d="M6.901 7.996a.081.081 0 0 1-.048 0c-.855-.407-1.185-.58-1.31-.653a.14.14 0 0 1-.064-.089l-.36-1.762H.753a.68.68 0 0 1-.65-.353.797.797 0 0 1 0-.783.68.68 0 0 1 .65-.353h4.902c.326-.003.61.241.68.585l.664 3.262a.147.147 0 0 1-.044.13.128.128 0 0 1-.053.016z"/>
        <path fill="#4D4D4D" fill-rule="nonzero" d="M5.583 4.264a.554.554 0 0 1 .54.45l.642 3.056c-.84-.387-1.149-.544-1.257-.607l-.37-1.748H.848a.546.546 0 0 1-.52-.271.6.6 0 0 1 0-.608.546.546 0 0 1 .52-.272h4.735zm0-.244H.848a.778.778 0 0 0-.732.39.854.854 0 0 0 0 .86.778.778 0 0 0 .732.39H4.95l.328 1.556c.015.07.058.129.118.162.122.069.445.23 1.275.617.03.007.063.007.094 0a.21.21 0 0 0 .15-.054c.068-.058.099-.15.08-.24l-.643-3.06A.786.786 0 0 0 5.583 4v.02z"/>
        <path fill="#FFD9C7" d="M8.072 21a.127.127 0 0 1-.123-.09l-.364-1.564L5.004 8.142a.106.106 0 0 1 .024-.1A.125.125 0 0 1 5.122 8H27.05c.3-.003.583.132.762.365a.92.92 0 0 1 .152.806l-3.309 11.17a.95.95 0 0 1-.934.659H8.072z"/>
        <path fill="#4D4D4D" fill-rule="nonzero" d="M26.963 7.25c.258-.002.5.123.653.337.152.213.2.486.131.741L24.47 20.143a.83.83 0 0 1-.808.606h-15.5l-.36-1.654-2.56-11.844h21.721zm0-.25H5.241a.231.231 0 0 0-.19.09.246.246 0 0 0-.044.21l2.557 11.85.36 1.654a.24.24 0 0 0 .239.196h15.499a1.076 1.076 0 0 0 1.023-.787l3.277-11.814c.087-.331.024-.685-.17-.963A1.028 1.028 0 0 0 26.943 7h.02z"/>
        <path fill="#F2B9A7" d="M6 8H5l2.63 11.407L8 21h1l-.37-1.593z"/>
        <path fill="#EF608F" d="M8.54 25.5c-.005-1.285 1.063-2.36 2.46-2.475a2.49 2.49 0 0 0-.27-.025C9.222 23 8 24.12 8 25.5S9.222 28 10.73 28H11c-1.407-.116-2.48-1.206-2.46-2.5zM20.54 25.5c-.005-1.285 1.063-2.36 2.46-2.475a2.266 2.266 0 0 0-.27-.025C21.222 23 20 24.12 20 25.5s1.222 2.5 2.73 2.5H23c-1.401-.128-2.466-1.21-2.46-2.5z"/>
    </g>
</svg>
