<svg xmlns="http://www.w3.org/2000/svg" width="32" height="35" viewBox="0 0 32 35">
    <g fill="none" fill-rule="evenodd">
        <path fill="#EFEFEF" d="M4.2 30.182C1.27 27.235-.915 23.097.381 20.38c1.296-2.718 6.154-4.106 9.917-8.132C14.062 8.22 16.915 1.557 20.864.248c3.948-1.308 9.029 2.756 10.575 7.417 1.547 4.662-.474 9.9-1.634 14.647s-2.336 7.972-4.754 10.31c-2.418 2.34-6.829 2.761-10.891 2.088-4.063-.672-7.02-1.559-9.96-4.528z"/>
        <path fill="#FFD9C7" d="M5.209 26.99A3.21 3.21 0 0 1 2 23.775V12.75a.75.75 0 0 1 .749-.75h24.508a.75.75 0 0 1 .743.75v11.037A3.21 3.21 0 0 1 24.791 27L5.21 26.99z"/>
        <path fill="#4D4D4D" fill-rule="nonzero" d="M28.126 12.263c.337 0 .61.271.61.606v10.85a3.03 3.03 0 0 1-3.034 3.018H6.298a3.03 3.03 0 0 1-3.033-3.017V12.869a.604.604 0 0 1 .609-.606h24.252zm0-.263H3.874a.871.871 0 0 0-.874.869v10.85A3.295 3.295 0 0 0 6.298 27h19.404A3.295 3.295 0 0 0 29 23.72V12.869a.871.871 0 0 0-.874-.869z"/>
        <path fill="#D89078" d="M1.763 14A.774.774 0 0 1 1 13.22V9.365C1 7.506 2.464 6 4.27 6h22.46C28.536 6 30 7.506 30 9.364v3.857a.774.774 0 0 1-.758.779H1.763z"/>
        <path fill="#4D4D4D" fill-rule="nonzero" d="M26.62 6.271a3.102 3.102 0 0 1 3.094 3.105v3.734a.623.623 0 0 1-.605.619H1.891a.622.622 0 0 1-.621-.62V9.377A3.102 3.102 0 0 1 4.363 6.27h22.258zm0-.271H4.364A3.378 3.378 0 0 0 1 9.376v3.734c.003.492.4.89.89.89h27.22c.49 0 .887-.398.89-.89V9.376a3.377 3.377 0 0 0-3.38-3.349V6z"/>
        <path fill="#F79" fill-rule="nonzero" d="M21.932 2.346a1.838 1.838 0 0 0-.862-1.112 1.793 1.793 0 0 0-1.386-.163 6.785 6.785 0 0 0-4.186 3.717 6.759 6.759 0 0 0-4.181-3.717 1.818 1.818 0 0 0-.991 0c-.968.278-1.53 1.298-1.257 2.28.717 2.404 2.677 4.215 5.103 4.717l-2.765 2.799a.628.628 0 0 0 .037.838.606.606 0 0 0 .826.037l2.62-2.653V28h1.22V9.089l2.621 2.658c.238.24.623.24.86-.002a.623.623 0 0 0-.002-.873l-2.76-2.804c2.427-.502 4.386-2.313 5.103-4.717.09-.329.09-.676 0-1.005zm-11.718.648a.583.583 0 0 1 .181-.583.613.613 0 0 1 .432-.179.483.483 0 0 1 .154 0c2.094.642 3.617 2.477 3.883 4.68-2.17-.263-3.985-1.799-4.629-3.918h-.02zm10.525 0c-.629 2.117-2.425 3.662-4.586 3.945.268-2.203 1.79-4.04 3.883-4.685a.525.525 0 0 1 .16 0 .614.614 0 0 1 .415.184.578.578 0 0 1 .15.556h-.022z"/>
        <path fill="#4D4D4D" fill-rule="nonzero" d="M17.094 28H15.9a.132.132 0 0 1-.13-.134V9.481l-2.343 2.4a.717.717 0 0 1-.79.15.749.749 0 0 1-.446-.684.737.737 0 0 1 .203-.535l2.54-2.603c-2.32-.573-4.17-2.363-4.86-4.705a2.005 2.005 0 0 1 .17-1.496c.248-.455.664-.79 1.154-.93.34-.104.703-.104 1.043 0A6.774 6.774 0 0 1 16.5 4.572a6.795 6.795 0 0 1 4.064-3.496c1.017-.295 2.074.31 2.363 1.353.099.349.099.72 0 1.069-.692 2.342-2.542 4.133-4.862 4.71l2.535 2.598a.758.758 0 0 1 0 1.07.733.733 0 0 1-1.043 0L17.225 9.48v18.385a.132.132 0 0 1-.13.134zm-1.043-.267h.934V9.139c0-.053.03-.102.078-.123a.133.133 0 0 1 .146.027l2.535 2.63a.476.476 0 0 0 .657 0 .49.49 0 0 0 0-.679l-2.707-2.77a.141.141 0 0 1-.037-.133.126.126 0 0 1 .1-.09c2.328-.489 4.208-2.246 4.897-4.577.084-.3.084-.619 0-.92a1.67 1.67 0 0 0-.766-1.042 1.613 1.613 0 0 0-1.257-.15 6.543 6.543 0 0 0-4.017 3.625.13.13 0 0 1-.117.075.13.13 0 0 1-.117-.075 6.542 6.542 0 0 0-4.017-3.603 1.626 1.626 0 0 0-1.617.433 1.724 1.724 0 0 0-.422 1.657c.689 2.331 2.569 4.088 4.898 4.576a.126.126 0 0 1 .099.091.141.141 0 0 1-.037.134l-2.702 2.77a.504.504 0 0 0-.13.341c0 .126.052.246.14.332.181.182.472.182.653 0l2.56-2.625a.133.133 0 0 1 .147-.027c.047.021.078.07.078.123l.02 18.594zm1.085-20.588a.119.119 0 0 1-.089-.043.13.13 0 0 1-.042-.112c.272-2.23 1.799-4.088 3.897-4.742a.641.641 0 0 1 .172 0 .7.7 0 0 1 .522.22c.189.178.262.452.187.705-.645 2.15-2.468 3.706-4.647 3.967v.005zM21.1 2.488a1.018 1.018 0 0 0-.125 0c-1.942.602-3.376 2.292-3.688 4.347 2-.319 3.647-1.784 4.236-3.77a.43.43 0 0 0-.12-.438.428.428 0 0 0-.303-.139zM15.884 7.14c-2.178-.275-3.992-1.841-4.627-3.994a.719.719 0 0 1 .141-.706.711.711 0 0 1 .522-.219.58.58 0 0 1 .193 0c2.101.652 3.629 2.514 3.896 4.747a.141.141 0 0 1-.036.113.124.124 0 0 1-.115.059h.026zm-4.418-4.074c.59 1.989 2.237 3.457 4.24 3.78-.31-2.057-1.744-3.748-3.687-4.352h-.11a.474.474 0 0 0-.318.139.456.456 0 0 0-.125.433z"/>
    </g>
</svg>
