<svg xmlns="http://www.w3.org/2000/svg" width="31" height="32" viewBox="0 0 31 32">
    <g fill="none" fill-rule="evenodd">
        <path fill="#EFEFEF" d="M13.645 1.208C18.088.415 23.101-.89 26.373.894c3.272 1.783 4.826 6.655 4.607 11.18-.22 4.525-2.189 8.693-5.198 12.617-3.01 3.924-7.015 7.576-10.747 7.294-3.731-.283-7.195-4.515-9.849-8.172C2.533 20.155.606 17.078.125 13.639c-.481-3.44.421-7.251 2.823-9.317C5.35 2.257 9.203 1.996 13.645 1.208z"/>
        <path fill="#FFD9C7" d="M18.708 29a.157.157 0 0 1-.102-.043l-1.97-1.952-1.965 1.952a.157.157 0 0 1-.102.043.157.157 0 0 1-.107-.043l-1.982-1.952-1.964 1.952a.145.145 0 0 1-.102.043.134.134 0 0 1-.102-.043l-1.97-1.952-1.971 1.952a.145.145 0 0 1-.102.043.134.134 0 0 1-.102-.043l-1.953-1.952-1.97 1.952a.145.145 0 0 1-.102.043H2.09A.135.135 0 0 1 2 28.877V3.134C2 3.06 2.063 3 2.142 3h20.716c.079 0 .142.06.142.134v25.743a.135.135 0 0 1-.09.123h-.052a.145.145 0 0 1-.101-.043l-1.97-1.952-1.965 1.952a.157.157 0 0 1-.114.043z"/>
        <path fill="#4D4D4D" fill-rule="nonzero" d="M22.704 3.244V28.71l-2.043-2.032-2.049 2.053-2.043-2.032-2.032 2.032-2.065-2.032-2.037 2.032-2.043-2.032-2.038 2.032-2.032-2.032-2.043 2.032V3.265h20.425v-.021zm0-.244H2.28A.278.278 0 0 0 2 3.265v25.466a.271.271 0 0 0 .179.244.34.34 0 0 0 .1 0 .277.277 0 0 0 .201-.064l1.842-1.83 1.842 1.83a.274.274 0 0 0 .201.085.286.286 0 0 0 .201-.085l1.842-1.83 1.831 1.83a.274.274 0 0 0 .201.085.297.297 0 0 0 .201-.085l1.831-1.83 1.859 1.83a.298.298 0 0 0 .206.085.297.297 0 0 0 .201-.085l1.837-1.83 1.842 1.83a.297.297 0 0 0 .201.085.298.298 0 0 0 .207-.085l1.836-1.83 1.859 1.83a.297.297 0 0 0 .2.085c.036.005.072.005.107 0a.266.266 0 0 0 .173-.244V3.286a.272.272 0 0 0-.28-.265L22.705 3z"/>
        <rect width="9" height="1" x="5" y="8" fill="#4D4D4D" rx=".5"/>
        <rect width="9" height="1" x="5" y="10" fill="#4D4D4D" rx=".5"/>
        <rect width="9" height="1" x="5" y="13" fill="#4D4D4D" rx=".5"/>
        <rect width="16" height="1" x="5" y="16" fill="#4D4D4D" rx=".5"/>
        <rect width="8" height="1" x="13" y="18" fill="#4D4D4D" rx=".5"/>
        <path fill="#4D4D4D" d="M20.977 8H17v.59h.67c.823 0 1.324.265 1.458.793H17v.456h2.152c-.065.63-.583 1.04-1.633 1.04H17v.562c.886.911 1.58 1.687 2.332 2.559h.91c-.799-.94-1.598-1.867-2.332-2.604 1.212-.039 1.976-.63 2.07-1.557H21v-.456h-1.055a1.32 1.32 0 0 0-.525-.928h1.557V8z"/>
        <path fill="#F2B9A7" d="M4 4H3v25l1-1.093z"/>
    </g>
</svg>
