<svg xmlns="http://www.w3.org/2000/svg" xmlns:xlink="http://www.w3.org/1999/xlink" width="200" height="194" viewBox="0 0 200 194">
    <defs>
        <path id="b" d="M79.942 113.528h13.783c-1.01 4.094-.531 8.107 1.44 12.04 1.97 3.931 5.166 7.252 9.587 9.961h-48.7c4.42-2.71 7.616-6.03 9.586-9.962 1.97-3.932 2.45-7.945 1.44-12.04h12.864z"/>
        <filter id="a" width="145.2%" height="200%" x="-22.6%" y="-31.8%" filterUnits="objectBoundingBox">
            <feOffset dy="4" in="SourceAlpha" result="shadowOffsetOuter1"/>
            <feGaussianBlur in="shadowOffsetOuter1" result="shadowBlurOuter1" stdDeviation="3"/>
            <feColorMatrix in="shadowBlurOuter1" values="0 0 0 0 0 0 0 0 0 0 0 0 0 0 0 0 0 0 0.106544384 0"/>
        </filter>
        <rect id="d" width="159.884" height="117.112" rx="6.031"/>
        <filter id="c" width="113.8%" height="118.8%" x="-6.9%" y="-6%" filterUnits="objectBoundingBox">
            <feOffset dy="4" in="SourceAlpha" result="shadowOffsetOuter1"/>
            <feGaussianBlur in="shadowOffsetOuter1" result="shadowBlurOuter1" stdDeviation="3"/>
            <feColorMatrix in="shadowBlurOuter1" values="0 0 0 0 0 0 0 0 0 0 0 0 0 0 0 0 0 0 0.106544384 0"/>
        </filter>
        <ellipse id="f" cx="79.001" cy="105.412" rx="5.643" ry="5.647"/>
        <filter id="e" width="294.9%" height="294.8%" x="-97.5%" y="-62%" filterUnits="objectBoundingBox">
            <feOffset dy="4" in="SourceAlpha" result="shadowOffsetOuter1"/>
            <feGaussianBlur in="shadowOffsetOuter1" result="shadowBlurOuter1" stdDeviation="3"/>
            <feColorMatrix in="shadowBlurOuter1" values="0 0 0 0 0 0 0 0 0 0 0 0 0 0 0 0 0 0 0.106544384 0"/>
        </filter>
        <path id="h" d="M49.62 137.38a2.766 2.766 0 0 1-2.766-2.767 2.766 2.766 0 0 1 2.765-2.767h60.646a2.766 2.766 0 0 1 2.765 2.767 2.766 2.766 0 0 1-2.765 2.767H49.619z"/>
        <filter id="g" width="133.2%" height="497.5%" x="-16.6%" y="-126.5%" filterUnits="objectBoundingBox">
            <feOffset dy="4" in="SourceAlpha" result="shadowOffsetOuter1"/>
            <feGaussianBlur in="shadowOffsetOuter1" result="shadowBlurOuter1" stdDeviation="3"/>
            <feColorMatrix in="shadowBlurOuter1" values="0 0 0 0 0 0 0 0 0 0 0 0 0 0 0 0 0 0 0.106544384 0"/>
        </filter>
        <rect id="j" width="97.811" height="90.353" rx="3.692"/>
        <filter id="i" width="122.5%" height="124.3%" x="-11.2%" y="-7.7%" filterUnits="objectBoundingBox">
            <feOffset dy="4" in="SourceAlpha" result="shadowOffsetOuter1"/>
            <feGaussianBlur in="shadowOffsetOuter1" result="shadowBlurOuter1" stdDeviation="3"/>
            <feColorMatrix in="shadowBlurOuter1" values="0 0 0 0 0 0 0 0 0 0 0 0 0 0 0 0 0 0 0.106544384 0"/>
        </filter>
        <text id="l" font-family="Montserrat-Medium, Montserrat" font-size="22.154" font-weight="400">
            <tspan x="11.286" y="52.059">Saldo</tspan>
        </text>
        <filter id="k" width="129.4%" height="181.5%" x="-14.7%" y="-25.9%" filterUnits="objectBoundingBox">
            <feOffset dy="4" in="SourceAlpha" result="shadowOffsetOuter1"/>
            <feGaussianBlur in="shadowOffsetOuter1" result="shadowBlurOuter1" stdDeviation="3"/>
            <feColorMatrix in="shadowBlurOuter1" values="0 0 0 0 0 0 0 0 0 0 0 0 0 0 0 0 0 0 0.106544384 0"/>
        </filter>
    </defs>
    <g fill="none" fill-rule="evenodd">
        <path fill="#D8D8D8" fill-opacity="0" fill-rule="nonzero" d="M-22-23h244v244H-22z"/>
        <path fill="#FFDCE9" d="M3.5 160.738c13.136 47.53 67.369 33.851 109.667 21.295 42.297-12.557 97.91-31.486 84.773-79.017-13.136-47.53-86.652-114.43-134.326-100.278-47.674 14.152-73.25 110.47-60.114 158z"/>
        <g transform="translate(19.94 39)">
            <use fill="#000" filter="url(#a)" xlink:href="#b"/>
            <use fill="#F1A7C8" xlink:href="#b"/>
        </g>
        <g transform="translate(19.94 39)">
            <use fill="#000" filter="url(#c)" xlink:href="#d"/>
            <use fill="#F03680" xlink:href="#d"/>
        </g>
        <path fill="#FFF" d="M19.94 133.118h159.884v17.706c0 3.33-2.7 6.03-6.03 6.03H25.97a6.03 6.03 0 0 1-6.03-6.03v-17.706z"/>
        <g transform="translate(19.94 39)">
            <use fill="#000" filter="url(#e)" xlink:href="#f"/>
            <use fill="#F03680" xlink:href="#f"/>
        </g>
        <g transform="translate(19.94 39)">
            <use fill="#000" filter="url(#g)" xlink:href="#h"/>
            <use fill="#F03680" xlink:href="#h"/>
        </g>
        <g transform="translate(51.917 22.059)">
            <use fill="#000" filter="url(#i)" xlink:href="#j"/>
            <use fill="#FFF" xlink:href="#j"/>
            <g fill="#1280AC">
                <use filter="url(#k)" xlink:href="#l"/>
                <use xlink:href="#l"/>
                <use xlink:href="#l"/>
            </g>
            <path fill="#F580B6" d="M3.692 0H94.12a3.692 3.692 0 0 1 3.692 3.692v13.25H0V3.691A3.692 3.692 0 0 1 3.692 0z"/>
            <ellipse cx="8.464" cy="8.471" fill="#FFF" rx="2.821" ry="2.824"/>
            <ellipse cx="15.988" cy="8.471" fill="#FFF" rx="2.821" ry="2.824"/>
            <ellipse cx="23.512" cy="8.471" fill="#FFF" rx="2.821" ry="2.824"/>
        </g>
    </g>
</svg>
